<svg xmlns="http://www.w3.org/2000/svg" xmlns:xlink="http://www.w3.org/1999/xlink" width="125" zoomAndPan="magnify" viewBox="0 0 93.75 93.749997" height="125" preserveAspectRatio="xMidYMid meet" version="1.0"><defs><clipPath id="6d181747fb"><path d="M 0 0 L 93.5 0 L 93.5 93.5 L 0 93.5 Z M 0 0 " clip-rule="nonzero"/></clipPath></defs><g clip-path="url(#6d181747fb)"><path fill="#ffffff" d="M 46.75 93.5 C 20.921875 93.5 0 72.433594 0 46.75 C 0 21.066406 20.921875 0 46.75 0 C 72.578125 0 93.5 20.921875 93.5 46.75 C 93.5 72.578125 72.433594 93.5 46.75 93.5 Z M 46.75 2.886719 C 22.507812 2.886719 2.886719 22.507812 2.886719 46.75 C 2.886719 70.992188 22.507812 90.613281 46.75 90.613281 C 70.992188 90.613281 90.613281 70.992188 90.613281 46.75 C 90.613281 22.507812 70.847656 2.886719 46.75 2.886719 Z M 46.75 2.886719 " fill-opacity="1" fill-rule="nonzero"/></g></svg>