<svg xmlns="http://www.w3.org/2000/svg" xmlns:xlink="http://www.w3.org/1999/xlink" width="125" zoomAndPan="magnify" viewBox="0 0 93.75 93.749997" height="125" preserveAspectRatio="xMidYMid meet" version="1.0"><defs><clipPath id="42371fb548"><path d="M 0 0 L 93.5 0 L 93.5 93.5 L 0 93.5 Z M 0 0 " clip-rule="nonzero"/></clipPath><clipPath id="4b4889d50e"><path d="M 24 9.351562 L 70.265625 9.351562 L 70.265625 84.152344 L 24 84.152344 Z M 24 9.351562 " clip-rule="nonzero"/></clipPath></defs><g clip-path="url(#42371fb548)"><path fill="#ffffff" d="M 46.75 93.5 C 20.921875 93.5 0 72.433594 0 46.75 C 0 21.066406 20.921875 0 46.75 0 C 72.578125 0 93.5 20.921875 93.5 46.75 C 93.5 72.578125 72.433594 93.5 46.75 93.5 Z M 46.75 2.886719 C 22.507812 2.886719 2.886719 22.507812 2.886719 46.75 C 2.886719 70.992188 22.507812 90.613281 46.75 90.613281 C 70.992188 90.613281 90.613281 70.992188 90.613281 46.75 C 90.613281 22.507812 70.847656 2.886719 46.75 2.886719 Z M 46.75 2.886719 " fill-opacity="1" fill-rule="nonzero"/></g><g clip-path="url(#4b4889d50e)"><path fill="#ffffff" d="M 67.347656 31.179688 C 65.664062 30.351562 63.652344 30.351562 61.960938 31.1875 C 61.722656 31.308594 61.492188 31.441406 61.277344 31.59375 C 60.773438 30.464844 59.859375 29.496094 58.648438 28.871094 C 56.808594 27.941406 54.523438 27.941406 52.679688 28.871094 C 51.835938 29.308594 51.148438 29.914062 50.625 30.617188 C 50.109375 29.914062 49.414062 29.308594 48.574219 28.871094 C 46.734375 27.9375 44.453125 27.9375 42.609375 28.871094 C 42.199219 29.085938 41.832031 29.34375 41.496094 29.621094 L 41.0625 14.757812 C 40.976562 11.140625 38.433594 9.347656 36.097656 9.347656 C 33.585938 9.347656 30.894531 11.089844 30.59375 14.765625 L 30.019531 41.183594 L 29.941406 41.195312 C 29.894531 41.199219 29.847656 41.210938 29.804688 41.21875 C 23.652344 42.867188 23.3125 47.179688 24.808594 54.066406 C 26.269531 60.769531 28.480469 63.480469 30.25 65.664062 C 31.75 67.488281 32.734375 68.699219 32.769531 71.734375 L 32.769531 75.652344 C 32.769531 82.769531 36.609375 84.164062 43.234375 84.164062 L 53.761719 84.164062 C 60.390625 84.164062 64.230469 82.769531 64.230469 75.652344 L 64.242188 72.753906 L 64.257812 71.089844 C 64.375 68.648438 65.320312 67.40625 66.519531 65.882812 C 68.148438 63.8125 70.175781 61.234375 70.160156 54.980469 L 70.160156 35.433594 C 70.160156 33.671875 69.082031 32.042969 67.351562 31.179688 Z M 66.449219 33.007812 C 67.445312 33.503906 68.066406 34.386719 68.109375 35.335938 C 68.101562 35.375 68.089844 35.398438 68.089844 35.4375 L 68.109375 46.132812 C 68.054688 46.195312 67.992188 46.25 67.945312 46.296875 C 67.691406 46.519531 67.410156 46.714844 67.097656 46.867188 C 65.832031 47.511719 64.253906 47.515625 62.988281 46.867188 C 62.007812 46.371094 61.320312 45.539062 61.199219 45.035156 C 61.191406 45.007812 61.699219 34.011719 61.699219 34.011719 C 61.992188 33.605469 62.378906 33.253906 62.867188 33.011719 C 63.972656 32.460938 65.347656 32.464844 66.449219 33.007812 Z M 57.71875 30.691406 C 58.929688 31.308594 59.679688 32.429688 59.683594 33.621094 L 58.988281 45.273438 C 58.988281 46.472656 58.238281 47.59375 57.027344 48.210938 C 55.757812 48.855469 54.183594 48.855469 52.917969 48.210938 C 51.707031 47.59375 50.957031 46.46875 50.953125 45.332031 L 51.648438 33.691406 C 51.648438 33.683594 51.644531 33.671875 51.644531 33.660156 C 51.644531 33.652344 51.652344 33.640625 51.652344 33.632812 C 51.652344 32.4375 52.402344 31.308594 53.609375 30.695312 C 54.878906 30.046875 56.457031 30.050781 57.722656 30.691406 Z M 47.644531 30.691406 C 48.855469 31.308594 49.605469 32.429688 49.609375 33.621094 L 49.136719 41.632812 C 48.113281 40.21875 46.542969 39.367188 45.648438 39.367188 C 45.644531 39.367188 41.578125 39.757812 41.578125 39.757812 L 41.578125 33.632812 C 41.578125 32.4375 42.328125 31.308594 43.539062 30.691406 C 44.804688 30.046875 46.382812 30.046875 47.644531 30.691406 Z M 32.628906 14.871094 C 32.832031 12.398438 34.496094 11.296875 36.039062 11.386719 C 37.382812 11.425781 38.96875 12.34375 39.027344 14.804688 L 39.542969 33.652344 L 39.542969 39.808594 C 39.542969 39.882812 39.566406 39.9375 39.582031 40.003906 L 32.0625 40.933594 Z M 62.195312 75.652344 C 62.195312 80.734375 60.382812 82.128906 53.761719 82.128906 L 43.238281 82.128906 C 36.621094 82.128906 34.808594 80.734375 34.808594 75.652344 L 34.808594 72.75 L 62.195312 72.75 Z M 64.917969 64.625 C 63.699219 66.175781 62.457031 67.792969 62.242188 70.714844 L 34.753906 70.714844 C 34.496094 67.65625 33.253906 66.109375 31.835938 64.367188 C 30.195312 62.363281 28.15625 59.859375 26.808594 53.628906 C 25.28125 46.621094 26.019531 44.363281 30.265625 43.203125 L 44.882812 41.398438 C 46.078125 41.398438 47.199219 42.148438 47.816406 43.355469 C 48.464844 44.625 48.464844 46.195312 47.816406 47.46875 C 47.257812 48.570312 46.179688 49.046875 44.6875 49.441406 L 35.371094 51.230469 C 34.816406 51.339844 34.457031 51.871094 34.558594 52.425781 C 34.664062 52.976562 35.199219 53.335938 35.753906 53.230469 L 41.480469 52.132812 C 41.527344 52.167969 41.5625 52.214844 41.617188 52.246094 C 45.039062 54.226562 45.515625 58.527344 45.515625 62.882812 C 45.515625 63.449219 45.972656 63.90625 46.535156 63.90625 C 47.097656 63.90625 47.554688 63.449219 47.554688 62.882812 C 47.554688 58.789062 47.109375 54.355469 44.167969 51.617188 L 45.144531 51.429688 C 46.910156 50.960938 48.679688 50.265625 49.632812 48.394531 C 49.6875 48.285156 49.730469 48.171875 49.773438 48.066406 C 50.304688 48.867188 51.0625 49.550781 51.996094 50.027344 C 52.914062 50.496094 53.945312 50.726562 54.976562 50.726562 C 56.003906 50.726562 57.035156 50.496094 57.957031 50.027344 C 59.105469 49.445312 59.988281 48.542969 60.503906 47.5 C 60.949219 47.960938 61.464844 48.378906 62.066406 48.683594 C 62.984375 49.152344 64.015625 49.382812 65.046875 49.382812 C 66.074219 49.382812 67.105469 49.15625 68.023438 48.683594 C 68.054688 48.667969 68.082031 48.648438 68.117188 48.628906 L 68.125 54.984375 C 68.128906 60.527344 66.5 62.609375 64.917969 64.625 " fill-opacity="1" fill-rule="nonzero"/></g></svg>