<svg xmlns="http://www.w3.org/2000/svg" xmlns:xlink="http://www.w3.org/1999/xlink" width="125" zoomAndPan="magnify" viewBox="0 0 93.75 93.749997" height="125" preserveAspectRatio="xMidYMid meet" version="1.0"><defs><clipPath id="bcc2376907"><path d="M 0 0 L 93.5 0 L 93.5 93.5 L 0 93.5 Z M 0 0 " clip-rule="nonzero"/></clipPath><clipPath id="dc2c7c4da3"><path d="M 23.609375 10 L 69.984375 10 L 69.984375 84 L 23.609375 84 Z M 23.609375 10 " clip-rule="nonzero"/></clipPath></defs><g clip-path="url(#bcc2376907)"><path fill="#ffffff" d="M 46.75 93.5 C 20.921875 93.5 0 72.433594 0 46.75 C 0 21.066406 20.921875 0 46.75 0 C 72.578125 0 93.5 20.921875 93.5 46.75 C 93.5 72.578125 72.433594 93.5 46.75 93.5 Z M 46.75 2.886719 C 22.507812 2.886719 2.886719 22.507812 2.886719 46.75 C 2.886719 70.992188 22.507812 90.613281 46.75 90.613281 C 70.992188 90.613281 90.613281 70.992188 90.613281 46.75 C 90.613281 22.507812 70.847656 2.886719 46.75 2.886719 Z M 46.75 2.886719 " fill-opacity="1" fill-rule="nonzero"/></g><g clip-path="url(#dc2c7c4da3)"><path fill="#ffffff" d="M 63.992188 67.007812 C 62.058594 69.882812 61.574219 73.234375 61.167969 76.585938 C 61.0625 77.449219 60.96875 78.3125 60.847656 79.390625 C 56.296875 80.445312 51.960938 81.316406 47.5 81.648438 C 42.882812 81.992188 38.5 81.132812 34.167969 79.714844 C 31.992188 79.007812 31.972656 78.980469 31.769531 76.679688 C 31.417969 72.675781 30.773438 68.734375 29.804688 64.816406 C 29.039062 61.714844 28.710938 58.488281 28.421875 55.296875 C 27.832031 48.75 27.417969 42.191406 26.882812 35.640625 C 26.5625 31.710938 26.109375 27.792969 25.796875 23.863281 C 25.625 21.683594 25.503906 19.484375 25.589844 17.300781 C 25.632812 16.175781 26.015625 14.988281 26.523438 13.96875 C 27.515625 11.972656 29.765625 11.707031 31.214844 13.382812 C 31.867188 14.140625 32.460938 15.058594 32.738281 16.007812 C 33.273438 17.8125 33.828125 19.683594 33.90625 21.546875 C 34.160156 27.878906 34.171875 34.21875 34.359375 40.550781 C 34.40625 42.144531 34.550781 43.789062 35.015625 45.296875 C 35.757812 47.707031 37.261719 49.671875 39.898438 50.140625 C 42.390625 50.582031 44.492188 49.65625 45.980469 47.527344 C 46.058594 47.414062 46.210938 47.355469 46.226562 47.34375 C 48.871094 47.449219 51.417969 47.589844 53.964844 47.628906 C 54.808594 47.640625 55.289062 48.003906 55.765625 48.621094 C 56.472656 49.546875 57.246094 50.425781 58.035156 51.285156 C 58.320312 51.597656 58.699219 51.894531 59.089844 52.011719 C 59.371094 52.097656 59.878906 51.972656 60.039062 51.757812 C 60.199219 51.546875 60.179688 51 60.007812 50.78125 C 58.785156 49.242188 57.542969 47.707031 56.199219 46.273438 C 55.878906 45.933594 55.140625 45.921875 54.585938 45.882812 C 52.257812 45.722656 49.921875 45.671875 47.601562 45.457031 C 46.453125 45.351562 45.238281 45.132812 44.871094 43.695312 C 44.480469 42.183594 44.847656 40.839844 46.132812 40.023438 C 47.210938 39.335938 48.492188 38.574219 49.695312 38.554688 C 54.140625 38.476562 58.597656 38.574219 63.03125 38.847656 C 65.359375 38.992188 65.550781 39.425781 65.992188 41.628906 C 66.476562 44.0625 67.105469 46.476562 67.433594 48.929688 C 68.292969 55.320312 67.730469 61.460938 63.992188 67.007812 Z M 41.730469 22.695312 C 42.765625 22.902344 43.488281 23.550781 43.710938 24.523438 C 44.128906 26.359375 44.503906 28.21875 44.695312 30.085938 C 44.929688 32.40625 44.996094 34.75 45.050781 37.082031 C 45.066406 37.671875 44.929688 38.390625 44.585938 38.84375 C 42.5 41.613281 42.371094 43.289062 44.167969 46.179688 C 44.242188 46.296875 44.246094 46.453125 44.28125 46.589844 C 42.027344 49.160156 39.246094 49.011719 37.429688 46.203125 C 36.359375 44.542969 36.152344 42.644531 36.128906 40.738281 C 36.089844 37.234375 36.128906 33.734375 36.109375 30.230469 C 36.105469 29.359375 35.984375 28.484375 35.957031 27.613281 C 35.847656 24.394531 38.589844 22.070312 41.730469 22.695312 Z M 48.546875 22.785156 C 50.589844 21.875 52.507812 22.601562 53.402344 24.65625 C 53.570312 25.050781 53.710938 25.488281 53.730469 25.910156 C 53.902344 29.308594 54.039062 32.710938 54.1875 36.21875 C 51.644531 36.496094 49.484375 36.726562 47.160156 36.976562 C 47.054688 35.726562 46.9375 34.378906 46.832031 33.027344 C 46.6875 31.144531 46.5625 29.257812 46.414062 27.371094 C 46.226562 25.007812 46.914062 23.511719 48.546875 22.785156 Z M 55.914062 26.597656 C 55.933594 25.707031 56.261719 24.6875 56.789062 23.984375 C 57.492188 23.046875 58.605469 22.429688 59.871094 22.707031 C 61.277344 23.015625 62.257812 24.007812 62.4375 25.390625 C 62.777344 28.058594 62.945312 30.75 63.074219 33.4375 C 63.125 34.4375 62.871094 35.453125 62.734375 36.660156 C 60.503906 36.660156 58.480469 36.660156 56.371094 36.660156 C 56.226562 36.089844 56.015625 35.613281 56.003906 35.132812 C 55.933594 32.289062 55.839844 29.4375 55.914062 26.597656 Z M 68.96875 46.863281 C 68.632812 45.21875 68.171875 43.59375 67.917969 41.9375 C 67.585938 39.75 66.984375 37.804688 64.601562 37.015625 C 64.707031 35.726562 64.933594 34.558594 64.871094 33.40625 C 64.714844 30.5 64.730469 27.535156 64.117188 24.714844 C 63.304688 21 59.519531 19.769531 56.367188 21.890625 C 55.832031 22.253906 55.335938 22.671875 54.773438 23.101562 C 53.535156 21.597656 52.15625 20.472656 50.109375 20.566406 C 48.105469 20.65625 46.570312 21.6875 45.21875 22.953125 C 42.277344 19.640625 39.132812 20.832031 35.925781 22.355469 C 35.695312 20.8125 35.527344 19.378906 35.253906 17.964844 C 34.882812 16.007812 34.207031 14.164062 32.960938 12.574219 C 30.476562 9.394531 26.234375 9.859375 24.695312 13.578125 C 24.121094 14.964844 23.816406 16.523438 23.726562 18.027344 C 23.609375 19.910156 23.777344 21.824219 23.929688 23.714844 C 24.625 32.453125 25.308594 41.191406 26.09375 49.917969 C 26.519531 54.644531 26.804688 59.421875 27.761719 64.050781 C 28.726562 68.707031 29.769531 73.320312 30.050781 78.074219 C 30.128906 79.445312 30.722656 80.503906 32.078125 80.882812 C 35.09375 81.730469 38.097656 82.679688 41.167969 83.257812 C 45.6875 84.109375 50.199219 83.359375 54.667969 82.582031 C 57.238281 82.136719 59.78125 81.507812 62.414062 80.941406 C 62.585938 79.710938 62.777344 78.640625 62.878906 77.558594 C 63.25 73.582031 64.214844 69.847656 66.386719 66.390625 C 67.527344 64.574219 68.347656 62.449219 68.839844 60.351562 C 69.890625 55.898438 69.894531 51.367188 68.96875 46.863281 " fill-opacity="1" fill-rule="nonzero"/></g><path fill="#ffffff" d="M 48.738281 49.667969 C 48.527344 49.503906 48.035156 49.542969 47.753906 49.679688 C 47.453125 49.824219 47.222656 50.160156 47.011719 50.453125 C 44.570312 53.84375 43.191406 57.621094 42.855469 62.007812 C 42.960938 62.808594 42.996094 63.84375 43.269531 64.8125 C 43.394531 65.257812 43.976562 65.574219 44.351562 65.945312 C 44.566406 65.464844 44.941406 64.988281 44.957031 64.503906 C 44.988281 63.351562 44.707031 62.179688 44.808594 61.039062 C 45.089844 57.785156 46.296875 54.835938 48.066406 52.105469 C 48.378906 51.617188 48.75 51.148438 48.953125 50.617188 C 49.058594 50.351562 48.945312 49.828125 48.738281 49.667969 " fill-opacity="1" fill-rule="nonzero"/></svg>