<svg xmlns="http://www.w3.org/2000/svg" xmlns:xlink="http://www.w3.org/1999/xlink" width="125" zoomAndPan="magnify" viewBox="0 0 93.75 93.749997" height="125" preserveAspectRatio="xMidYMid meet" version="1.0"><defs><clipPath id="0386f8b525"><path d="M 0 0 L 93.5 0 L 93.5 93.5 L 0 93.5 Z M 0 0 " clip-rule="nonzero"/></clipPath><clipPath id="ced3274068"><path d="M 21.878906 9.351562 L 71.996094 9.351562 L 71.996094 84.152344 L 21.878906 84.152344 Z M 21.878906 9.351562 " clip-rule="nonzero"/></clipPath></defs><g clip-path="url(#0386f8b525)"><path fill="#ffffff" d="M 46.75 93.5 C 20.921875 93.5 0 72.433594 0 46.75 C 0 21.066406 20.921875 0 46.75 0 C 72.578125 0 93.5 20.921875 93.5 46.75 C 93.5 72.578125 72.433594 93.5 46.75 93.5 Z M 46.75 2.886719 C 22.507812 2.886719 2.886719 22.507812 2.886719 46.75 C 2.886719 70.992188 22.507812 90.613281 46.75 90.613281 C 70.992188 90.613281 90.613281 70.992188 90.613281 46.75 C 90.613281 22.507812 70.847656 2.886719 46.75 2.886719 Z M 46.75 2.886719 " fill-opacity="1" fill-rule="nonzero"/></g><g clip-path="url(#ced3274068)"><path fill="#ffffff" d="M 69.171875 57.71875 C 68.558594 71.257812 64.09375 76.785156 61.21875 78.957031 C 61.394531 78.222656 61.449219 77.457031 61.375 76.6875 C 61.121094 74.152344 59.332031 72.027344 56.9375 71.109375 C 58.511719 69.871094 59.523438 67.953125 59.523438 65.800781 C 59.523438 63.5 58.363281 61.460938 56.597656 60.242188 C 58.695312 59.222656 60.21875 57.238281 60.453125 54.914062 C 60.644531 53.007812 60.023438 51.105469 58.746094 49.695312 C 58.332031 49.234375 57.863281 48.84375 57.351562 48.519531 C 58.925781 47.65625 60.113281 46.207031 60.578125 44.4375 C 61.121094 42.34375 60.695312 40.183594 59.402344 38.515625 C 58.113281 36.84375 56.160156 35.886719 54.054688 35.886719 L 43.261719 35.886719 C 42 34.957031 36.039062 30.015625 36.039062 19.644531 C 36.039062 13.886719 40.082031 11.292969 42.953125 11.292969 C 45.894531 11.292969 47.664062 16.277344 48.457031 19.246094 C 50.679688 27.5625 53.414062 29.675781 56.585938 32.125 C 57.605469 32.910156 58.65625 33.726562 59.769531 34.808594 C 66.105469 40.972656 69.675781 46.699219 69.171875 57.71875 Z M 37.285156 82.207031 C 34.621094 82.207031 32.457031 80.042969 32.457031 77.382812 L 32.457031 75.804688 C 32.457031 73.308594 31.433594 70.976562 29.644531 69.414062 C 28.597656 68.5 28 67.183594 28 65.8125 C 28 65.808594 28.03125 65.53125 28.03125 65.53125 C 28.035156 65.453125 28.03125 65.375 28.015625 65.300781 L 28.015625 63.976562 C 28.015625 61.5625 27.046875 59.289062 25.363281 57.734375 C 24.363281 56.816406 23.816406 55.570312 23.816406 54.222656 C 23.816406 53.753906 24.03125 52.609375 25.488281 50.21875 C 26.8125 48.039062 27.289062 45.710938 26.824219 43.65625 C 26.765625 43.394531 26.730469 43.117188 26.714844 42.839844 C 26.667969 41.632812 27.136719 40.449219 28.042969 39.507812 C 29.070312 38.433594 30.5 37.816406 31.960938 37.816406 L 54.054688 37.816406 C 55.5625 37.816406 56.953125 38.5 57.875 39.695312 C 58.796875 40.886719 59.101562 42.441406 58.707031 43.949219 C 58.175781 45.988281 56.15625 47.464844 53.730469 47.464844 L 34.109375 47.464844 C 33.578125 47.464844 33.144531 47.898438 33.144531 48.429688 C 33.144531 48.964844 33.578125 49.398438 34.109375 49.398438 L 53.730469 49.398438 C 55.09375 49.398438 56.402344 49.976562 57.3125 50.988281 C 58.238281 52.011719 58.671875 53.335938 58.53125 54.722656 C 58.289062 57.148438 56.035156 59.046875 53.402344 59.046875 L 35.074219 59.046875 C 34.542969 59.046875 34.109375 59.480469 34.109375 60.011719 C 34.109375 60.542969 34.542969 60.976562 35.074219 60.976562 L 52.765625 60.976562 C 55.429688 60.976562 57.589844 63.140625 57.589844 65.800781 C 57.589844 68.460938 55.429688 70.625 52.765625 70.625 L 38.613281 70.625 C 38.082031 70.625 37.648438 71.058594 37.648438 71.589844 C 37.648438 72.125 38.082031 72.558594 38.613281 72.558594 L 54.320312 72.558594 C 56.957031 72.558594 59.210938 74.457031 59.453125 76.878906 C 59.589844 78.230469 59.179688 79.527344 58.300781 80.539062 C 58.269531 80.570312 58.242188 80.601562 58.214844 80.636719 C 57.300781 81.636719 56.003906 82.207031 54.652344 82.207031 Z M 61.117188 33.425781 C 59.925781 32.265625 58.824219 31.417969 57.765625 30.597656 C 54.75 28.273438 52.375 26.433594 50.320312 18.75 C 48.683594 12.609375 46.136719 9.363281 42.953125 9.363281 C 39.28125 9.363281 34.109375 12.554688 34.109375 19.644531 C 34.109375 28.195312 37.878906 33.398438 40.347656 35.886719 L 31.960938 35.886719 C 29.976562 35.886719 28.042969 36.71875 26.648438 38.171875 C 25.375 39.496094 24.714844 41.183594 24.785156 42.921875 C 24.804688 43.320312 24.859375 43.710938 24.941406 44.082031 C 25.292969 45.644531 24.902344 47.464844 23.839844 49.214844 C 22.523438 51.375 21.886719 53.015625 21.886719 54.222656 C 21.886719 56.089844 22.679688 57.886719 24.054688 59.15625 C 25.347656 60.34375 26.085938 62.101562 26.085938 63.976562 L 26.085938 65.449219 C 26.085938 65.476562 26.089844 65.503906 26.089844 65.53125 C 26.082031 65.621094 26.070312 65.765625 26.070312 65.800781 C 26.070312 67.738281 26.90625 69.585938 28.371094 70.867188 C 29.742188 72.066406 30.527344 73.867188 30.527344 75.804688 L 30.527344 77.382812 C 30.527344 81.105469 33.558594 84.136719 37.285156 84.136719 L 54.652344 84.136719 C 56.484375 84.136719 58.238281 83.386719 59.507812 82.074219 C 61.34375 81.496094 70.199219 77.683594 71.101562 57.800781 C 71.636719 46.0625 67.84375 39.972656 61.117188 33.425781 " fill-opacity="1" fill-rule="nonzero"/></g></svg>